<svg width="14" height="14" viewBox="0 0 14 14" fill="none" xmlns="http://www.w3.org/2000/svg">
<path d="M6.33594 5.00016H7.66927C7.84609 5.00016 8.01565 5.0704 8.14068 5.19542C8.2657 5.32045 8.33594 5.49002 8.33594 5.66683C8.33594 5.84364 8.40618 6.01321 8.5312 6.13823C8.65623 6.26326 8.8258 6.3335 9.00261 6.3335C9.17942 6.3335 9.34899 6.26326 9.47401 6.13823C9.59904 6.01321 9.66927 5.84364 9.66927 5.66683C9.66927 5.1364 9.45856 4.62769 9.08349 4.25262C8.70842 3.87754 8.19971 3.66683 7.66927 3.66683H6.33594C5.80551 3.66683 5.2968 3.87754 4.92173 4.25262C4.54665 4.62769 4.33594 5.1364 4.33594 5.66683V8.3335C4.33594 8.86393 4.54665 9.37264 4.92173 9.74771C5.2968 10.1228 5.80551 10.3335 6.33594 10.3335H7.66927C8.19971 10.3335 8.70842 10.1228 9.08349 9.74771C9.45856 9.37264 9.66927 8.86393 9.66927 8.3335C9.66927 8.15668 9.59904 7.98712 9.47401 7.86209C9.34899 7.73707 9.17942 7.66683 9.00261 7.66683C8.8258 7.66683 8.65623 7.73707 8.5312 7.86209C8.40618 7.98712 8.33594 8.15668 8.33594 8.3335C8.33594 8.51031 8.2657 8.67988 8.14068 8.8049C8.01565 8.92992 7.84609 9.00016 7.66927 9.00016H6.33594C6.15913 9.00016 5.98956 8.92992 5.86454 8.8049C5.73951 8.67988 5.66927 8.51031 5.66927 8.3335V5.66683C5.66927 5.49002 5.73951 5.32045 5.86454 5.19542C5.98956 5.0704 6.15913 5.00016 6.33594 5.00016ZM7.00261 0.333496C5.68407 0.333496 4.39513 0.724489 3.29881 1.45703C2.20248 2.18957 1.34799 3.23077 0.84341 4.44894C0.338826 5.66711 0.206804 7.00756 0.464039 8.30076C0.721273 9.59397 1.35621 10.7819 2.28856 11.7142C3.22091 12.6466 4.4088 13.2815 5.70201 13.5387C6.99521 13.796 8.33566 13.6639 9.55383 13.1594C10.772 12.6548 11.8132 11.8003 12.5457 10.704C13.2783 9.60764 13.6693 8.3187 13.6693 7.00016C13.6693 6.12468 13.4968 5.25778 13.1618 4.44894C12.8268 3.6401 12.3357 2.90517 11.7167 2.28612C11.0976 1.66706 10.3627 1.176 9.55383 0.840966C8.74499 0.505935 7.87809 0.333496 7.00261 0.333496ZM7.00261 12.3335C5.94777 12.3335 4.91663 12.0207 4.03957 11.4347C3.1625 10.8486 2.47892 10.0157 2.07525 9.04114C1.67158 8.0666 1.56596 6.99425 1.77175 5.95968C1.97754 4.92512 2.48549 3.97481 3.23137 3.22893C3.97725 2.48305 4.92756 1.9751 5.96213 1.76931C6.99669 1.56352 8.06905 1.66914 9.04359 2.07281C10.0181 2.47647 10.8511 3.16006 11.4371 4.03712C12.0231 4.91418 12.3359 5.94533 12.3359 7.00016C12.3359 8.41465 11.774 9.7712 10.7738 10.7714C9.77365 11.7716 8.4171 12.3335 7.00261 12.3335Z" fill="white"/>
</svg>
