<svg width="20" height="21" viewBox="0 0 20 21" fill="none" xmlns="http://www.w3.org/2000/svg">
    <path
        d="M18.9 0.0166016H1.1C0.808262 0.0166016 0.528473 0.132494 0.322183 0.338784C0.115893 0.545074 0 0.824863 0 1.1166V18.9166C0 19.0611 0.0284524 19.2041 0.0837326 19.3376C0.139013 19.471 0.220038 19.5923 0.322183 19.6944C0.424327 19.7966 0.54559 19.8776 0.679048 19.9329C0.812506 19.9881 0.955546 20.0166 1.1 20.0166H10.68V12.2666H8.08V9.2666H10.68V7.0166C10.6261 6.48836 10.6885 5.95473 10.8627 5.45314C11.0369 4.95155 11.3188 4.49415 11.6885 4.11301C12.0582 3.73188 12.5068 3.43624 13.0028 3.24684C13.4989 3.05744 14.0304 2.97885 14.56 3.0166C15.3383 3.01181 16.1163 3.05188 16.89 3.1366V5.8366H15.3C14.04 5.8366 13.8 6.4366 13.8 7.3066V9.2366H16.8L16.41 12.2366H13.8V20.0166H18.9C19.0445 20.0166 19.1875 19.9881 19.3209 19.9329C19.4544 19.8776 19.5757 19.7966 19.6778 19.6944C19.78 19.5923 19.861 19.471 19.9163 19.3376C19.9715 19.2041 20 19.0611 20 18.9166V1.1166C20 0.972147 19.9715 0.829108 19.9163 0.69565C19.861 0.562192 19.78 0.440929 19.6778 0.338784C19.5757 0.23664 19.4544 0.155614 19.3209 0.100334C19.1875 0.045054 19.0445 0.0166016 18.9 0.0166016Z"
        fill="#3BD188" />
</svg>
    