<svg width="20" height="21" viewBox="0 0 20 21" fill="none" xmlns="http://www.w3.org/2000/svg">
    <path
        d="M15.34 3.4766C15.1027 3.4766 14.8707 3.54698 14.6733 3.67884C14.476 3.8107 14.3222 3.99811 14.2313 4.21738C14.1405 4.43665 14.1168 4.67793 14.1631 4.91071C14.2094 5.14349 14.3236 5.35731 14.4915 5.52513C14.6593 5.69295 14.8731 5.80724 15.1059 5.85354C15.3387 5.89985 15.5799 5.87608 15.7992 5.78526C16.0185 5.69443 16.2059 5.54062 16.3378 5.34329C16.4696 5.14595 16.54 4.91394 16.54 4.6766C16.54 4.35834 16.4136 4.05312 16.1885 3.82807C15.9635 3.60303 15.6583 3.4766 15.34 3.4766V3.4766ZM19.94 5.8966C19.9206 5.0669 19.7652 4.246 19.48 3.4666C19.2257 2.79973 18.83 2.19588 18.32 1.6966C17.8248 1.18403 17.2196 0.790778 16.55 0.546601C15.7727 0.252762 14.9508 0.0938115 14.12 0.0766015C13.06 0.0166015 12.72 0.0166016 10 0.0166016C7.28 0.0166016 6.94 0.0166015 5.88 0.0766015C5.04915 0.0938115 4.22734 0.252762 3.45 0.546601C2.78168 0.79325 2.17693 1.18616 1.68 1.6966C1.16743 2.19178 0.774176 2.79704 0.53 3.4666C0.236161 4.24394 0.07721 5.06575 0.0599999 5.8966C-5.58793e-08 6.9566 0 7.2966 0 10.0166C0 12.7366 -5.58793e-08 13.0766 0.0599999 14.1366C0.07721 14.9674 0.236161 15.7893 0.53 16.5666C0.774176 17.2362 1.16743 17.8414 1.68 18.3366C2.17693 18.847 2.78168 19.24 3.45 19.4866C4.22734 19.7804 5.04915 19.9394 5.88 19.9566C6.94 20.0166 7.28 20.0166 10 20.0166C12.72 20.0166 13.06 20.0166 14.12 19.9566C14.9508 19.9394 15.7727 19.7804 16.55 19.4866C17.2196 19.2424 17.8248 18.8492 18.32 18.3366C18.8322 17.8392 19.2283 17.2348 19.48 16.5666C19.7652 15.7872 19.9206 14.9663 19.94 14.1366C19.94 13.0766 20 12.7366 20 10.0166C20 7.2966 20 6.9566 19.94 5.8966V5.8966ZM18.14 14.0166C18.1327 14.6514 18.0178 15.2803 17.8 15.8766C17.6403 16.3118 17.3839 16.705 17.05 17.0266C16.7256 17.3571 16.3332 17.613 15.9 17.7766C15.3037 17.9944 14.6748 18.1093 14.04 18.1166C13.04 18.1666 12.67 18.1766 10.04 18.1766C7.41 18.1766 7.04 18.1766 6.04 18.1166C5.38089 18.1289 4.72459 18.0275 4.1 17.8166C3.68578 17.6447 3.31136 17.3894 3 17.0666C2.66809 16.7453 2.41484 16.3518 2.26 15.9166C2.01586 15.3118 1.88044 14.6685 1.86 14.0166C1.86 13.0166 1.8 12.6466 1.8 10.0166C1.8 7.3866 1.8 7.0166 1.86 6.0166C1.86448 5.36766 1.98295 4.72455 2.21 4.1166C2.38605 3.69451 2.65626 3.31826 3 3.0166C3.30381 2.67277 3.67929 2.3997 4.1 2.2166C4.70955 1.99664 5.352 1.88168 6 1.8766C7 1.8766 7.37 1.8166 10 1.8166C12.63 1.8166 13 1.8166 14 1.8766C14.6348 1.88388 15.2637 1.99885 15.86 2.2166C16.3144 2.38525 16.7223 2.65945 17.05 3.0166C17.3777 3.32378 17.6338 3.69933 17.8 4.1166C18.0223 4.72553 18.1373 5.36838 18.14 6.0166C18.19 7.0166 18.2 7.3866 18.2 10.0166C18.2 12.6466 18.19 13.0166 18.14 14.0166ZM10 4.8866C8.98581 4.88858 7.99496 5.19113 7.15265 5.75602C6.31035 6.32091 5.65438 7.1228 5.26763 8.06035C4.88089 8.99791 4.78072 10.0291 4.97979 11.0235C5.17886 12.018 5.66824 12.9311 6.38608 13.6476C7.10392 14.364 8.01801 14.8516 9.01286 15.0487C10.0077 15.2459 11.0387 15.1437 11.9755 14.7551C12.9123 14.3666 13.7129 13.709 14.2761 12.8656C14.8394 12.0222 15.14 11.0308 15.14 10.0166C15.1413 9.34171 15.0092 8.67321 14.7512 8.04956C14.4933 7.42591 14.1146 6.85941 13.6369 6.38265C13.1592 5.90589 12.5919 5.52828 11.9678 5.27153C11.3436 5.01478 10.6749 4.88396 10 4.8866V4.8866ZM10 13.3466C9.34139 13.3466 8.69757 13.1513 8.14995 12.7854C7.60233 12.4195 7.17552 11.8994 6.92348 11.2909C6.67144 10.6825 6.6055 10.0129 6.73398 9.36695C6.86247 8.72099 7.17962 8.12764 7.64533 7.66193C8.11104 7.19623 8.70439 6.87907 9.35035 6.75059C9.9963 6.6221 10.6659 6.68804 11.2743 6.94008C11.8828 7.19212 12.4029 7.61894 12.7688 8.16655C13.1347 8.71417 13.33 9.35799 13.33 10.0166C13.33 10.4539 13.2439 10.8869 13.0765 11.2909C12.9092 11.695 12.6639 12.062 12.3547 12.3713C12.0454 12.6805 11.6783 12.9258 11.2743 13.0931C10.8703 13.2605 10.4373 13.3466 10 13.3466V13.3466Z"
        fill="#3BD188" />
</svg>
    