<svg width="20" height="21" viewBox="0 0 20 21" fill="none" xmlns="http://www.w3.org/2000/svg">
    <path
        d="M18.4686 0.0167414H1.52859C1.33817 0.0140968 1.14909 0.0489889 0.972159 0.119425C0.795224 0.189861 0.633897 0.294462 0.497391 0.427253C0.360885 0.560045 0.251875 0.718426 0.176586 0.893351C0.101296 1.06828 0.0612021 1.25632 0.0585938 1.44674V18.5867C0.0612021 18.7772 0.101296 18.9652 0.176586 19.1401C0.251875 19.3151 0.360885 19.4734 0.497391 19.6062C0.633897 19.739 0.795224 19.8436 0.972159 19.9141C1.14909 19.9845 1.33817 20.0194 1.52859 20.0167H18.4686C18.659 20.0194 18.8481 19.9845 19.025 19.9141C19.202 19.8436 19.3633 19.739 19.4998 19.6062C19.6363 19.4734 19.7453 19.3151 19.8206 19.1401C19.8959 18.9652 19.936 18.7772 19.9386 18.5867V1.44674C19.936 1.25632 19.8959 1.06828 19.8206 0.893351C19.7453 0.718426 19.6363 0.560045 19.4998 0.427253C19.3633 0.294462 19.202 0.189861 19.025 0.119425C18.8481 0.0489889 18.659 0.0140968 18.4686 0.0167414V0.0167414ZM6.08859 16.7567H3.08859V7.75674H6.08859V16.7567ZM4.58859 6.49674C4.17486 6.49674 3.77806 6.33238 3.48551 6.03983C3.19295 5.74727 3.02859 5.35048 3.02859 4.93674C3.02859 4.523 3.19295 4.12621 3.48551 3.83365C3.77806 3.5411 4.17486 3.37674 4.58859 3.37674C4.80829 3.35183 5.03077 3.37359 5.24147 3.44062C5.45217 3.50765 5.64633 3.61843 5.81125 3.7657C5.97617 3.91297 6.10812 4.09342 6.19847 4.29522C6.28881 4.49703 6.33551 4.71564 6.33551 4.93674C6.33551 5.15784 6.28881 5.37645 6.19847 5.57826C6.10812 5.78006 5.97617 5.96051 5.81125 6.10778C5.64633 6.25505 5.45217 6.36583 5.24147 6.43286C5.03077 6.49989 4.80829 6.52166 4.58859 6.49674V6.49674ZM16.9086 16.7567H13.9086V11.9267C13.9086 10.7167 13.4786 9.92674 12.3886 9.92674C12.0513 9.92921 11.7228 10.035 11.4474 10.2299C11.1721 10.4248 10.9631 10.6994 10.8486 11.0167C10.7703 11.2518 10.7364 11.4993 10.7486 11.7467V16.7467H7.74859C7.74859 16.7467 7.74859 8.56674 7.74859 7.74674H10.7486V9.01674C11.0211 8.54385 11.4175 8.15426 11.895 7.88994C12.3726 7.62562 12.9132 7.49659 13.4586 7.51674C15.4586 7.51674 16.9086 8.80674 16.9086 11.5767V16.7567Z"
        fill="#3BD188" />
</svg>
    