<svg width="20" height="18" viewBox="0 0 20 18" fill="none" xmlns="http://www.w3.org/2000/svg">
    <path
        d="M20 2.81681C19.2483 3.14291 18.4534 3.35847 17.64 3.45681C18.4982 2.94413 19.1413 2.13759 19.45 1.18681C18.6436 1.66687 17.7608 2.00511 16.84 2.18681C16.2245 1.51938 15.405 1.07511 14.5098 0.923663C13.6146 0.772218 12.6945 0.92217 11.8938 1.35C11.093 1.77783 10.4569 2.45934 10.0852 3.28765C9.71355 4.11595 9.62729 5.0442 9.84 5.92681C8.20943 5.84434 6.61444 5.41976 5.15865 4.68067C3.70287 3.94158 2.41885 2.9045 1.39 1.63681C1.02914 2.26698 0.839519 2.98063 0.84 3.70681C0.83872 4.38119 1.00422 5.04543 1.32176 5.64037C1.63929 6.23532 2.09902 6.74252 2.66 7.11681C2.00798 7.09907 1.36989 6.92411 0.8 6.60681V6.65681C0.804887 7.6017 1.13599 8.5159 1.73731 9.24477C2.33863 9.97365 3.17326 10.4725 4.1 10.6568C3.74325 10.7654 3.37287 10.8226 3 10.8268C2.74189 10.8238 2.48442 10.8004 2.23 10.7568C2.49391 11.5696 3.00462 12.28 3.69107 12.789C4.37753 13.298 5.20558 13.5804 6.06 13.5968C4.6172 14.7321 2.83588 15.3517 1 15.3568C0.665735 15.3579 0.331736 15.3379 0 15.2968C1.87443 16.5071 4.05881 17.1495 6.29 17.1468C7.82969 17.1628 9.35713 16.8718 10.7831 16.2909C12.2091 15.71 13.505 14.8507 14.5952 13.7633C15.6854 12.6759 16.548 11.3822 17.1326 9.95772C17.7171 8.53323 18.012 7.00654 18 5.46681C18 5.29681 18 5.11681 18 4.93681C18.7847 4.35162 19.4615 3.63424 20 2.81681Z"
        fill="#3BD188" />
</svg>
    